Coordinates
version=1
nRows=8
nColumns=63
inDegrees=yes

Units are S.I. units (second, meters, Newtons, ...)
If the header above contains a line with 'inDegrees', this indicates whether rotational values are in degrees (yes) or radians (no).

endheader
time	pelvis_tilt	pelvis_list	pelvis_rotation	pelvis_tx	pelvis_ty	pelvis_tz	hip_flexion_r	hip_adduction_r	hip_rotation_r	knee_angle_r	knee_angle_r_beta	ankle_angle_r	subtalar_angle_r	mtp_angle_r	hip_flexion_l	hip_adduction_l	hip_rotation_l	knee_angle_l	knee_angle_l_beta	ankle_angle_l	subtalar_angle_l	mtp_angle_l	L5_S1_Flex_Ext	L5_S1_Lat_Bending	L5_S1_axial_rotation	L4_L5_Flex_Ext	L4_L5_Lat_Bending	L4_L5_axial_rotation	L3_L4_Flex_Ext	L3_L4_Lat_Bending	L3_L4_axial_rotation	L2_L3_Flex_Ext	L2_L3_Lat_Bending	L2_L3_axial_rotation	L1_L2_Flex_Ext	L1_L2_Lat_Bending	L1_L2_axial_rotation	L1_T12_Flex_Ext	L1_T12_Lat_Bending	L1_T12_axial_rotation	Abs_r3	Abs_r2	Abs_r1	Abs_t1	Abs_t2	neck_flexion	neck_bending	neck_rotation	arm_flex_r	arm_add_r	arm_rot_r	elbow_flex_r	pro_sup_r	wrist_flex_r	wrist_dev_r	arm_flex_l	arm_add_l	arm_rot_l	elbow_flex_l	pro_sup_l	wrist_flex_l	wrist_dev_l
0.000000	-4.366215	-4.831692	72.937758	0.204906	0.961732	0.486283	6.778391	-1.376892	5.134609	10.433771	0.182104	34.118434	16.955635	0.000000	8.767975	0.383119	-9.017311	14.748753	0.257414	35.676048	-9.785087	0.000000	0.141746	-0.417870	4.138385	0.263237	-0.555767	4.397034	0.232875	-1.016008	4.397034	0.162002	-1.016008	3.621087	0.131626	-0.852120	3.362438	0.080994	-0.647280	3.103789	1.012479	-4.727025	23.016456	0.000000	0.000000	27.307023	5.462149	3.468076	6.370737	-6.919796	5.024577	73.575776	85.668568	-8.531586	12.863520	23.282904	-13.607550	15.332453	54.549816	82.813697	-7.023055	-7.357680
0.016667	-4.370237	-3.952233	73.868572	0.200872	0.962818	0.479579	5.008744	-1.924246	4.428610	9.511349	0.166004	34.198480	17.057047	0.000000	6.816459	1.120542	-7.900376	13.490963	0.235462	35.496694	-9.969876	0.000000	0.080289	-0.383193	3.942265	0.149105	-0.509647	4.188657	0.131907	-0.931695	4.188657	0.091762	-0.931695	3.449482	0.074556	-0.781407	3.203090	0.045877	-0.593566	2.956699	0.573497	-4.334755	21.925695	0.000000	0.000000	27.083290	4.443488	2.756372	4.796863	-7.717493	8.582138	68.563016	86.906451	-9.703684	8.978915	23.142157	-13.108264	30.200560	48.289073	87.719053	-13.301985	-5.811680
0.033333	-4.352237	-3.262535	74.774940	0.197270	0.963582	0.474065	3.569409	-2.358494	3.719428	8.745110	0.152631	34.276087	17.107680	0.000000	5.275832	1.723540	-6.748881	12.510178	0.218344	35.285986	-10.255793	0.000000	0.032544	-0.350408	3.735083	0.060437	-0.466042	3.968526	0.053466	-0.851982	3.968526	0.037194	-0.851982	3.268198	0.030220	-0.714552	3.034755	0.018595	-0.542782	2.801312	0.232456	-3.963884	20.773412	0.000000	0.000000	26.926083	3.680980	2.353374	3.376829	-8.431754	11.692823	63.922446	87.725192	-10.515863	5.857868	22.864255	-12.721286	43.009571	42.853630	90.407615	-18.105729	-4.698083
0.050000	-4.315595	-2.745154	75.648624	0.194084	0.964053	0.469644	2.433103	-2.690206	3.015048	8.124570	0.141800	34.352388	17.115087	0.000000	4.108009	2.203416	-5.582673	11.779312	0.205588	35.051275	-10.624151	0.000000	-0.002795	-0.319650	3.520483	-0.005190	-0.425134	3.740513	-0.004591	-0.777196	3.740513	-0.003194	-0.777196	3.080422	-0.002595	-0.651830	2.860392	-0.001597	-0.495137	2.640362	-0.019962	-3.615941	19.579868	0.000000	0.000000	26.828828	3.148854	2.222677	2.102889	-9.068591	14.394125	59.639146	88.170192	-11.008315	3.422936	22.464114	-12.434351	53.943387	38.177438	91.113209	-21.569949	-3.970421
0.066667	-4.263692	-2.382649	76.481387	0.191300	0.964259	0.466218	1.572545	-2.929951	2.323455	7.639242	0.133330	34.428514	17.086816	0.000000	3.274903	2.571473	-4.421601	11.271279	0.196721	34.799915	-11.056262	0.000000	-0.027031	-0.291053	3.302106	-0.050199	-0.387101	3.508488	-0.044409	-0.707667	3.508488	-0.030893	-0.707667	2.889343	-0.025101	-0.593516	2.682962	-0.015445	-0.450842	2.476580	-0.193078	-3.292455	18.365326	0.000000	0.000000	26.784951	2.821338	2.327876	0.967297	-9.634017	16.723536	55.698191	88.286849	-11.221228	1.596671	21.956653	-12.235193	63.185909	34.194443	90.069663	-23.830309	-3.582226
0.083333	-4.199907	-2.157578	77.264989	0.188904	0.964229	0.463690	0.960450	-3.088302	1.652636	7.278643	0.127036	34.505595	17.030419	0.000000	2.738428	2.839013	-3.285513	10.958993	0.191271	34.539255	-11.533440	0.000000	-0.041469	-0.264754	3.083598	-0.077012	-0.352123	3.276323	-0.068130	-0.643723	3.276323	-0.047395	-0.643723	2.698148	-0.038508	-0.539887	2.505423	-0.023695	-0.410104	2.312698	-0.296210	-2.994953	17.150046	0.000000	0.000000	26.787876	2.672660	2.632568	-0.037693	-10.134042	18.718549	52.084661	88.120562	-11.194792	0.301627	21.356786	-12.111544	70.921039	30.838595	87.510804	-25.022475	-3.487032
0.100000	-4.127623	-2.052497	77.991194	0.186880	0.963991	0.461962	0.569536	-3.175828	1.010576	7.032286	0.122737	34.584765	16.953445	0.000000	2.460498	3.017341	-2.194257	10.815369	0.188764	34.276649	-12.036996	0.000000	-0.047415	-0.240887	2.868600	-0.088054	-0.320380	3.047887	-0.077898	-0.585693	3.047887	-0.054190	-0.585693	2.510025	-0.044029	-0.491217	2.330737	-0.027093	-0.373134	2.151450	-0.338678	-2.724962	15.954291	0.000000	0.000000	26.831027	2.677048	3.100347	-0.919826	-10.574679	20.416657	48.783632	87.716732	-10.969197	-0.539640	20.679432	-12.051141	77.332678	28.043843	83.670458	-25.282109	-3.638372
0.116667	-4.050218	-2.049966	78.651762	0.185214	0.963573	0.460938	0.372519	-3.203100	0.405259	6.889688	0.120248	34.667152	16.863446	0.000000	2.403027	3.117759	-1.167682	10.813321	0.188728	34.019449	-12.548243	0.000000	-0.046172	-0.219587	2.660755	-0.085746	-0.292051	2.827053	-0.075856	-0.533904	2.827053	-0.052770	-0.533904	2.328161	-0.042875	-0.447782	2.161864	-0.026383	-0.340140	1.995566	-0.329802	-2.484011	14.798323	0.000000	0.000000	26.907831	2.808731	3.694810	-1.686850	-10.961940	21.855353	45.780183	87.120758	-10.584632	-1.004576	19.939507	-12.041716	82.604728	25.744134	78.782454	-24.744876	-3.989777
